<?xml version="1.0" encoding="UTF-8" standalone="no"?>
<svg
   xmlns:dc="http://purl.org/dc/elements/1.1/"
   xmlns:cc="http://creativecommons.org/ns#"
   xmlns:rdf="http://www.w3.org/1999/02/22-rdf-syntax-ns#"
   xmlns:svg="http://www.w3.org/2000/svg"
   xmlns="http://www.w3.org/2000/svg"
   xmlns:sodipodi="http://sodipodi.sourceforge.net/DTD/sodipodi-0.dtd"
   xmlns:inkscape="http://www.inkscape.org/namespaces/inkscape"
   width="275.14mm"
   height="423.6mm"
   version="1.1"
   viewBox="0 0 275.14 423.6"
   id="svg56"
   sodipodi:docname="UbuntuIdCircleTag.svg"
   inkscape:version="1.0.2-2 (e86c870879, 2021-01-15)">
  <sodipodi:namedview
     pagecolor="#ffffff"
     bordercolor="#666666"
     borderopacity="1"
     objecttolerance="10"
     gridtolerance="10"
     guidetolerance="10"
     inkscape:pageopacity="0"
     inkscape:pageshadow="2"
     inkscape:window-width="1600"
     inkscape:window-height="837"
     id="namedview58"
     showgrid="false"
     inkscape:zoom="0.20924319"
     inkscape:cx="-658.54529"
     inkscape:cy="945.13167"
     inkscape:window-x="-8"
     inkscape:window-y="-8"
     inkscape:window-maximized="1"
     inkscape:current-layer="g50" />
  <metadata
     id="metadata2">
    <rdf:RDF>
      <cc:Work
         rdf:about="">
        <dc:format>image/svg+xml</dc:format>
        <dc:type
           rdf:resource="http://purl.org/dc/dcmitype/StillImage" />
        <dc:title />
      </cc:Work>
    </rdf:RDF>
  </metadata>
  <defs
     id="defs32">
    <style
       id="style4">.cls-1{fill:#e9500e;}</style>
    <style
       id="style6">.cls-1{fill:#e9500e;}.cls-2{fill:#fff;}</style>
    <style
       id="style8">.cls-1{fill:#e9500e;}</style>
    <style
       id="style10">.cls-1{fill:#e9500e;}</style>
    <style
       id="style12">.cls-1{fill:#e9500e;}</style>
    <style
       id="style14">.cls-1{fill:#e9500e;}.cls-2{fill:#fff;}</style>
    <style
       id="style16">.cls-1{fill:#e9500e;}</style>
    <style
       id="style18">.cls-1{fill:#e9500e;}</style>
    <style
       id="style20">.cls-1{fill:#e9500e;}.cls-2{fill:#fff;}</style>
    <style
       id="style22">.cls-1{fill:#e9500e;}.cls-2{fill:#fff;}</style>
    <style
       id="style24">.cls-1{fill:#e9500e;}</style>
    <style
       id="style26">.cls-1{fill:#e9500e;}.cls-2{fill:#fff;}</style>
    <style
       id="style28">.cls-1{fill:#e9500e;}</style>
    <style
       id="style30">.cls-1{fill:#e9500e;}</style>
  </defs>
  <g
     transform="translate(224.03 52.904)"
     id="g54">
    <g
       transform="scale(.26062 .27089)"
       fill="#808080"
       stroke="#fff"
       id="g52">
      <g
         transform="matrix(1.0152 0 0 .97673 -859.1 -194.81)"
         id="g50">
        <rect
           class="cls-1"
           width="1038.9"
           height="1600"
           id="rect34" />
        <g
           id="g67"
           transform="translate(18.185046)">
          <circle
             class="cls-2"
             cx="226.59"
             cy="1056.1"
             r="109.03"
             id="circle36" />
          <circle
             class="cls-2"
             cx="680.65002"
             cy="817.01001"
             r="109.03"
             id="circle38" />
          <circle
             class="cls-2"
             cx="656.08002"
             cy="1337.3"
             r="109.03"
             id="circle40" />
          <path
             class="cls-2"
             d="m 472.48,1336.7 a 265.52,265.52 0 0 1 -181.07,-138.1 156.95,156.95 0 0 1 -93.219,11.458 354.94,354.94 0 0 0 255.54,214.16 359.21,359.21 0 0 0 77.419,7.967 156,156 0 0 1 -31.922,-91.155 c -8.9797,-0.9975 -17.949,-2.4547 -26.744,-4.337 z"
             id="path42" />
          <path
             class="cls-2"
             d="m 807.8,1297.2 a 356.7,356.7 0 0 0 17.875,-418.52 157.14,157.14 0 0 1 -61.31,71.803 267.29,267.29 0 0 1 -8.7368,265.49 156.35,156.35 0 0 1 52.172,81.227 z"
             id="path44" />
          <path
             class="cls-2"
             d="m 218.18,899.72 q 4.1505,-0.2277 8.3053,-0.22553 a 157.35,157.35 0 0 1 82.682,23.545 265.91,265.91 0 0 1 214.11,-114.51 158.09,158.09 0 0 1 33.076,-88.42 c -137.1,-10.858 -270.32,59.892 -338.17,179.61 z"
             id="path46" />
          <path
             d="m 524.41126,909.56139 c -87.65,0 -158.92,71.274 -158.92,158.92001 0,87.65 71.274,158.92 158.92,158.92 87.65,0 158.92,-71.274 158.92,-158.92 0,-87.65001 -71.274,-158.92001 -158.92,-158.92001 z m 0,20.41 c 76.62,0 138.51,61.894 138.51,138.51001 v 0 h -277.03 v 0 c 0,-76.62001 61.894,-138.51001 138.51,-138.51001 z"
             color="#000000"
             color-rendering="auto"
             dominant-baseline="auto"
             fill="#ffffff"
             image-rendering="auto"
             shape-rendering="auto"
             solid-color="#000000"
             stop-color="#000000"
             stroke="none"
             style="font-variant-ligatures:normal;font-variant-position:normal;font-variant-caps:normal;font-variant-numeric:normal;font-variant-alternates:normal;font-variant-east-asian:normal;font-feature-settings:normal;font-variation-settings:normal;text-indent:0;text-decoration:none;text-decoration-line:none;text-decoration-style:solid;text-decoration-color:#000000;text-transform:none;text-orientation:mixed;white-space:normal;shape-padding:0;shape-margin:0;inline-size:0;isolation:auto;mix-blend-mode:normal"
             id="path48" />
        </g>
      </g>
    </g>
  </g>
</svg>
